<svg xmlns="http://www.w3.org/2000/svg" viewBox="0 0 31.059 31.059" width="512" height="512" enable-background="new 0 0 31.059 31.059"><path d="M30.172 26.119h-29.284c-.491 0-.888-.398-.888-.888v-19.404c0-.489.397-.887.888-.887h29.284c.49 0 .887.397.887.887v19.404c0 .49-.397.888-.887.888zm-28.397-1.775h27.509v-17.628h-27.509v17.628zm13.754-7.927c-.171 0-.341-.049-.489-.147l-14.643-9.703c-.408-.271-.521-.821-.249-1.229.271-.409.821-.521 1.23-.25l14.151 9.378 14.152-9.378c.407-.271.959-.159 1.229.25.271.408.159.959-.249 1.229l-14.641 9.702c-.149.099-.32.148-.491.148z" fill="#fff"/><path d="M.888 25.231" stroke="#fff" fill="#fff" stroke-width="1.775" stroke-linecap="round" stroke-linejoin="round" stroke-miterlimit="10"/></svg>